<svg xmlns="http://www.w3.org/2000/svg" id="Capa_2" data-name="Capa 2" viewBox="0 0 560 560"><defs><style>.cls-1{fill:none}.cls-1,.cls-2,.cls-3{stroke-width:0}.cls-2{fill:#e07f00}.cls-3{fill:#fff}</style></defs><g id="Imagen"><g><rect width="560" height="560" class="cls-1"/><g><path d="M471.98,553.98c-22.73-74.1-29.41-152.41-19.86-229.32,4.65-27,21.59-45.07-6.24-61.2.65.12,1,.18,1,.18-1.05-.6-2.14-1.17-3.28-1.72-17.83-32.77-55.75-49.39-92.02-48.78v.8c31.83,8.54,62.36,20.2,84.81,45.01-37.26-13.12-103.74-7.12-103.74-7.12,3.12,5.87,66.48,4.05,84.17,7.3-55.98,17.32-81.67,26.54-99.94,83.19,25.86-43.36,43.04-62.74,100.66-72.53,46.91-6.98,11.94,33.29,0,54.77-33.26,59.36-57.7,127.08-107.18,175.64-82.85,82.79-176.41,19.55-175.27-87.19-7.68-129.97,45.91-266,146.52-349.91,94.17-80.49,196.98-18.33,154.45,101.79C477.45,99.59,450.14-13.15,318.27,1.47c-52.31,9.68-94.92,45.55-129.08,84.46-257.59,290.39,33.73,721.99,225.62,281.58,4.9,63.1,17.93,125.72,39.66,185.19,2.52,6.87,20.5,11.24,17.51,1.29Z" class="cls-3"/><path d="M351.58,50.79c-14.34,3.6-41.54,10.7-31.04,28.42,0,0,41.48,55.12,41.48,55.12l24.15-69.78c4.28-19.34-22.94-14.74-34.59-13.77Z" class="cls-2"/><path d="M260.74,141.26c-15.94-22.2-37.3,23.39-41.37,37.05-2.24,6.56,1.45,13.65,8.1,15.59,0,0,70.84,20.67,70.84,20.67l-37.56-73.31Z" class="cls-2"/><path d="M184.84,283.35c-18.55-2.33-17,17.84-18.63,33.74.62,14.96-.28,40.31,17.81,33.86,0,0,85.69-45.55,85.69-45.55l-84.87-22.05Z" class="cls-2"/><path d="M213.2,494.63c12.2,7.17,38.23,16.29,43.07.66,0,0,26.41-101.86,26.41-101.86l-87.68,61.71c-12.9,11.09,3.34,28.65,18.2,39.49Z" class="cls-2"/></g></g></g></svg>