<svg xmlns="http://www.w3.org/2000/svg" id="Capa_2" data-name="Capa 2" viewBox="0 0 61.05 97.95"><defs><style>.cls-1,.cls-2{fill:#002b49;stroke-width:0}.cls-2{fill:#e07f00}</style></defs><g id="Info"><g><path d="M61.05,97.11c-3.62-13.03-4.67-26.81-3.16-40.29.68-4.73,3.51-7.78-.99-10.75.1.02.16.03.16.03-.17-.11-.34-.21-.52-.3-2.66-5.5-8.64-8.7-14.63-8.57v.14c5.16,1.51,10.03,3.66,13.48,7.91-5.92-2.3-16.49-1.25-16.49-1.25.31.98,10.68.74,13.38,1.28-9.11,2.81-13.52,5.76-15.88,14.62-.03.29,4.34-8.52,8-10.14,12.13-4.94,14.78-3.51,8,7.02-5.24,10.33-9.15,22.31-17.04,30.86-13.75,15.22-28.38,1.96-27.86-15.32-1.13-22.56,6.83-46.14,23.29-61.48,15.99-14.95,31.24-1.49,24.55,17.88C68.3,1.01,34.66-12.3,16.11,14.87c-40.7,49.91,4.89,127.37,35.86,49.47-.06,3.2,4.63,39.57,9.09,32.76Z" class="cls-1"/><path d="M41.92,8.7c-2.47.66-6.56,1.98-4.93,4.99,0,0,6.59,9.69,6.59,9.69l3.84-12.26c.72-3.28-3.5-2.64-5.5-2.42Z" class="cls-2"/><path d="M27.48,24.59c-3.02-3.64-5.76,4.07-6.58,6.51-.36,1.15.23,2.4,1.29,2.74l11.26,3.63-5.97-12.88Z" class="cls-2"/><path d="M15.41,49.56c-4.28-.28-2.89,8.3-2.42,10.81.28,1.08,1.39,1.6,2.29,1.07l13.62-8-13.49-3.87Z" class="cls-2"/><path d="M19.92,86.68c2.21,1.31,5.82,2.89,6.85.12,0,0,4.2-17.9,4.2-17.9l-13.94,10.84c-1.97,2.32.38,4.73,2.89,6.94Z" class="cls-2"/></g></g></svg>