<?xml version="1.0" encoding="UTF-8"?>
<svg id="Capa_2" data-name="Capa 2" xmlns="http://www.w3.org/2000/svg" viewBox="0 0 228.25 101.3">
  <defs>
    <style>
      .cls-1 {
        fill: #0e1b31;
      }

      .cls-1, .cls-2 {
        stroke-width: 0px;
      }

      .cls-2 {
        fill: #e07f00;
      }
    </style>
  </defs>
  <g id="Info">
    <g>
      <g>
        <path class="cls-2" d="M72.19,94.14v1.98c-13.17,6.66-13.54-17.1-.12-10.79v1.94c-11.2-6.59-10.82,13.92.12,6.87Z"/>
        <path class="cls-2" d="M74.21,84.46h1.63v12.6h-1.63v-12.6Z"/>
        <path class="cls-2" d="M78.43,97.06v-12.6c1.61.05,4.47-.34,5.6.95,1.62,1.46,1.3,4.86-.91,5.67,1.65,1.22,2.75,4.23,4.1,5.99h-1.94c-1.52-1.92-2.2-5.77-5.21-5.49v5.49h-1.63ZM80.55,85.99h-.49v3.98c3.93.86,4.65-4.38.49-3.98Z"/>
        <path class="cls-2" d="M95.91,84.46h1.64c-.32,4.17,1.8,13.03-4.9,12.75-6.74.32-4.58-8.57-4.91-12.75h1.64c.53,3.01-1.87,11.42,3.26,11.16,5.18.24,2.74-8.14,3.27-11.16Z"/>
        <path class="cls-2" d="M99.82,84.46h1.63v12.44c.15,2.61-.93,4.74-3.62,4.36l-.3-1.68c1.96.16,2.37-.79,2.29-2.89,0,0,0-12.23,0-12.23Z"/>
        <path class="cls-2" d="M107.63,84.38h1.15l5.11,12.67h-1.67l-1.52-3.73h-4.86l-1.42,3.73h-1.68l4.9-12.67ZM110.02,91.72l-1.84-4.56-1.71,4.56h3.55Z"/>
        <path class="cls-2" d="M124.19,84.46h1.55v12.6h-1.4l-7.62-9.71v9.71h-1.53v-12.6h1.32l7.69,9.79v-9.79Z"/>
        <path class="cls-2" d="M133.78,84.28c8.11-.21,8.07,13.24-.09,12.93-7.97.19-7.86-13.18.09-12.93ZM133.84,85.99c-5.86-.2-5.9,9.69-.05,9.55,5.81.13,5.87-9.64.05-9.55Z"/>
        <path class="cls-2" d="M154.52,84.46h1.64c-.32,4.17,1.8,13.03-4.9,12.75-6.74.32-4.58-8.57-4.91-12.75h1.64c.53,3.01-1.87,11.42,3.26,11.16,5.18.24,2.74-8.14,3.27-11.16Z"/>
        <path class="cls-2" d="M158.47,97.06v-12.6c1.61.05,4.47-.34,5.6.95,1.62,1.46,1.3,4.86-.91,5.67,1.65,1.22,2.75,4.23,4.1,5.99h-1.94c-1.52-1.92-2.2-5.77-5.21-5.49v5.49h-1.63ZM160.59,85.99h-.49v3.98c3.93.86,4.65-4.38.49-3.98Z"/>
        <path class="cls-2" d="M174.11,84.28c8.11-.21,8.07,13.24-.09,12.93-7.97.19-7.86-13.18.09-12.93ZM174.18,85.99c-5.86-.2-5.9,9.69-.05,9.55,5.81.13,5.87-9.64.05-9.55ZM175.78,80.82l-1.84,2.71h-.91l1.1-2.71h1.66Z"/>
        <path class="cls-2" d="M182.28,84.46h1.63v10.96h5.13v1.64h-6.77v-12.6Z"/>
        <path class="cls-2" d="M196.06,84.28c8.11-.21,8.07,13.24-.09,12.93-7.97.19-7.86-13.18.09-12.93ZM196.13,85.99c-5.86-.2-5.9,9.69-.05,9.55,5.81.13,5.87-9.64.05-9.55Z"/>
        <path class="cls-2" d="M210.39,90.85h3.83v5.34c-13.53,6.46-13.56-17.2-.23-10.83v1.84c-9.53-6.5-12.07,11.62-1.4,7.88v-2.63h-2.2v-1.61Z"/>
        <path class="cls-2" d="M222.2,84.28c8.11-.21,8.07,13.24-.09,12.93-7.97.19-7.86-13.18.09-12.93ZM222.26,85.99c-5.86-.2-5.9,9.69-.05,9.55,5.81.13,5.87-9.64.05-9.55Z"/>
      </g>
      <g>
        <path class="cls-1" d="M72.86,56.07c-.15-7.55-6.41-5.38-9.53-1.79-.54-5.21,14.09-8.29,12.6,3.22,0,0,0,10.78,0,10.78.15.4-2.71.08-2.82.18-.3.09-.06-2.8-.13-2.9-3.08,3.69-11.45,4.66-11.6-1.54-.04-5.49,8.27-4.94,11.47-7.95ZM67.74,67.21c6.11-.5,5.19-4.9,5.15-9.63-2.99,1.26-8.21,2.36-8.17,6.38,0,2.15,1.17,3.26,3.01,3.26Z"/>
        <path class="cls-1" d="M81.48,41.53c.37-.04,0,9.89.13,10.03,1.14-.27,3.19-1.72,4.83-1.43,16.27,2.56,6.56,26.39-7.91,16.4,0,0,0-24.86,0-24.86-.11-.35,2.85-.05,2.95-.14ZM86.47,67.53c10.31-.42,3.44-23.15-4.86-14.08,0,0,0,11.86,0,11.86,1,1.4,3.06,2.2,4.86,2.22Z"/>
        <path class="cls-1" d="M96.38,50.34c-.11-.34,2.85-.05,2.95-.14.35,0,.02,4.6.13,4.76,1.37-.35,2.47-3.19,4.08-4.01,3.29-2.01,3.43.34,3.24,3.01-2.33-3.4-5.27.44-7.32,2.76,0,0,0,11.57,0,11.57.22.34-3.31.26-3.08,0,0,0,0-17.94,0-17.94Z"/>
        <path class="cls-1" d="M111.77,43.82c.33,2.62-3.33,3.09-3.6.5-.37-2.5,3.36-3.2,3.6-.5ZM108.53,50.2c.12.14,3.12-.24,2.98.18-.14.14.28,18.18-.16,18.09-.09-.13-3.05.22-2.92-.14.13-3.28-.28-13.57.1-18.12Z"/>
        <path class="cls-1" d="M122.05,50.02c4.52-.13,8.58,4.37,7.91,9.56,0,0-13.29,0-13.29,0-.07,4.02,4.12,7.35,7.74,7.27,1.39,0,2.85-.36,4.24-1.33.14-.07.24.15.32.21-12.84,11.88-23.69-13.95-6.93-15.72ZM116.57,58.51h10.63c2.17-9.52-11.93-9.52-10.63,0Z"/>
        <path class="cls-1" d="M131.73,41.78c.71-.33,2.96-.26,3.08-.04-.12.18.24,26.71-.13,26.72-.12-.17-3.09.26-2.95-.18,0,0,0-26.5,0-26.5Z"/>
        <path class="cls-1" d="M147.71,43.5c-.29-.34,3.43-.25,3.14,0,0,0,0,23.5,0,23.5-.07.51,9.43.01,9.59.18.3-.03.23,1.32,0,1.29,0,0-12.57,0-12.57,0-.48.03,0-24.79-.16-24.96Z"/>
        <path class="cls-1" d="M170.19,50.02c12.01-.19,12.06,18.87,0,18.63-12.12.27-12.06-18.84,0-18.63ZM176.32,60.44c1.17-10.9-11.5-14.09-12.25-2.36-1.18,10.6,11.53,14.09,12.25,2.36ZM170,41.03c.48-1.48,2.67-1.22,2.72.18.2.86-3.83,4.79-4.24,5.48h-.84l2.37-5.66Z"/>
        <path class="cls-1" d="M181.02,50.27c0-.11.06-.14.16-.14.1.14,3.04-.23,2.92.14.08.15-.21,1.71.23,1.4,16.92-8.77,17.11,24.04-.23,15.83-.12.18.24,10.33-.13,10.35-.1-.03-3.11.17-2.95-.18,0,0,0-27.4,0-27.4ZM184.09,65.31c10.24,9.73,14.34-13.15,3.79-13.86-1.51,0-2.95.67-3.79,2.04,0,0,0,11.82,0,11.82Z"/>
        <path class="cls-1" d="M206.48,50.02c4.52-.13,8.58,4.37,7.91,9.56,0,0-13.29,0-13.29,0-.07,4.02,4.12,7.35,7.74,7.27,1.39,0,2.85-.36,4.24-1.33.14-.07.24.15.32.21-12.84,11.88-23.69-13.95-6.93-15.72ZM201.01,58.51h10.63c2.17-9.52-11.93-9.52-10.63,0Z"/>
        <path class="cls-1" d="M223.69,51.66c.43-.8-9.12.12-9.01-.43.08-.1-.15-1.19.13-1.15,0,0,13.32,0,13.32,0,.76.18-10.19,16.54-10.08,16.83-.37.68,9.36.03,9.46.25.1,0,.16.07.16.18-.09.09.18,1.21-.16,1.11,0,0-13.93,0-13.93,0-.73-.13,10.22-16.54,10.11-16.8Z"/>
      </g>
      <g>
        <path class="cls-1" d="M61.05,97.11c-3.62-13.03-4.67-26.81-3.16-40.29.68-4.73,3.51-7.78-.99-10.75.1.02.16.03.16.03-.17-.11-.34-.21-.52-.3-2.66-5.5-8.64-8.7-14.63-8.57v.14c5.16,1.51,10.03,3.66,13.48,7.91-5.92-2.3-16.49-1.25-16.49-1.25.31.98,10.68.74,13.38,1.28-9.11,2.81-13.52,5.76-15.88,14.62-.03.29,4.34-8.52,8-10.14,12.13-4.94,14.78-3.51,8,7.02-5.24,10.33-9.15,22.31-17.04,30.86-13.75,15.22-28.38,1.96-27.86-15.32-1.13-22.56,6.83-46.14,23.29-61.48,15.99-14.95,31.24-1.49,24.55,17.88C68.3,1.01,34.66-12.3,16.11,14.87c-40.7,49.91,4.89,127.37,35.86,49.47-.06,3.2,4.63,39.57,9.09,32.76Z"/>
        <path class="cls-2" d="M41.92,8.7c-2.47.66-6.56,1.98-4.93,4.99,0,0,6.59,9.69,6.59,9.69l3.84-12.26c.72-3.28-3.5-2.64-5.5-2.42Z"/>
        <path class="cls-2" d="M27.48,24.59c-3.02-3.64-5.76,4.07-6.58,6.51-.36,1.15.23,2.4,1.29,2.74l11.26,3.63-5.97-12.88Z"/>
        <path class="cls-2" d="M15.41,49.56c-4.28-.28-2.89,8.3-2.42,10.81.28,1.08,1.39,1.6,2.29,1.07l13.62-8-13.49-3.87Z"/>
        <path class="cls-2" d="M19.92,86.68c2.21,1.31,5.82,2.89,6.85.12,0,0,4.2-17.9,4.2-17.9l-13.94,10.84c-1.97,2.32.38,4.73,2.89,6.94Z"/>
      </g>
    </g>
  </g>
</svg>